#!OML:ASF H:\Terrain\Walking\May29\JustinRory\rory.ASF
:FULLY-SPECIFIED
:DEGREES
500
root 9.08551 16.7598 -2.966 -10.7472 37.9419 -15.2199
lowerback 28.5335 3.63037 5.71406
upperback 9.78457 6.74116 3.05454
thorax -4.41489 3.46199 -1.98961
lowerneck -7.45057 -19.8165 -11.4497
upperneck -11.9943 -25.2689 33.2797
head 3.98242 -12.6247 9.43967
rclavicle -3.61353e-014 -8.23714e-015
rhumerus 78.8505 -60.8671 -95.8873
rradius 7.88188
rwrist 61.6656
rhand -20.6589 15.116
rfingers 7.12502
rthumb 5.70367 -14.7873
lclavicle -3.61353e-014 -8.23714e-015
lhumerus -53.6885 25.6451 28.0235
lradius 21.9095
lwrist 1.82836
lhand -20.1967 27.2601
lfingers 7.12502
lthumb 6.14991 57.1508
rfemur -25.3194 -9.561 14.1315
rtibia 43.5607
rfoot -6.15468 -10.0353
rtoes -6.46689
lfemur -51.1457 2.23781 -13.8365
ltibia 67.3544
lfoot -12.3688 1.12775
ltoes -6.96004
501
root 9.13075 16.7564 -2.78087 -10.4295 37.944 -14.5304
lowerback 28.3709 3.71952 4.7989
upperback 9.83536 6.58742 2.92798
thorax -4.38412 3.37895 -1.5588
lowerneck -7.47539 -19.7593 -11.6114
upperneck -11.7975 -25.242 33.4304
head 4.09071 -12.5889 9.5008
rclavicle -2.33324e-014 -5.46409e-014
rhumerus 77.1664 -60.8692 -94.5748
rradius 8.27171
rwrist 60.4996
rhand -20.466 15.2533
rfingers 7.12502
rthumb 5.88995 -14.6448
lclavicle -2.33324e-014 -5.46409e-014
lhumerus -54.1972 26.2601 27.6411
lradius 21.6241
lwrist 1.07518
lhand -19.7599 27.0876
lfingers 7.12502
lthumb 6.57165 56.9656
rfemur -25.0728 -10.2474 13.6665
rtibia 44.6207
rfoot -7.50129 -9.11103
rtoes -5.83279
lfemur -50.3485 2.12336 -14.5492
ltibia 64.9717
lfoot -12.6741 1.05357
ltoes -6.25244
502
root 9.17033 16.758 -2.60686 -10.0705 38.2964 -13.956
lowerback 28.2976 3.75053 4.05501
upperback 9.7378 6.42057 2.82358
thorax -4.53943 3.28238 -1.20925
lowerneck -7.37063 -19.8687 -11.9383
upperneck -11.5119 -25.4873 33.7315
head 4.31152 -12.6836 9.57061
rclavicle 4.93483e-014 -9.0944e-015
rhumerus 75.5589 -61.1135 -93.0468
rradius 8.33632
rwrist 59.9156
rhand -20.4102 15.6952
rfingers 7.12502
rthumb 5.94377 -14.2014
lclavicle 4.93483e-014 -9.0944e-015
lhumerus -54.4537 26.628 27.4555
lradius 21.4956
lwrist 0.533839
lhand -19.1694 27.062
lfingers 7.12502
lthumb 7.1416 56.9215
rfemur -25.0214 -11.393 13.217
rtibia 45.7684
rfoot -8.38159 -8.32977
rtoes -8.0387
lfemur -49.6955 1.53439 -15.1119
ltibia 62.3871
lfoot -12.5761 0.982451
ltoes -6.54899
503
root 9.21176 16.7621 -2.43644 -10.3586 38.3306 -14.2471
lowerback 28.3616 3.72275 4.19987
upperback 9.67497 6.427 2.79517
thorax -4.61959 3.284 -1.33107
lowerneck -7.26785 -20.0635 -12.0861
upperneck -11.2978 -25.8445 34.0033
head 4.50501 -12.8434 9.58416
rclavicle -2.86747e-014 3.79679e-014
rhumerus 74.1843 -61.4572 -91.7273
rradius 8.28191
rwrist 59.3127
rhand -20.4369 16.0035
rfingers 7.12502
rthumb 5.91805 -13.8939
lclavicle -2.86747e-014 3.79679e-014
lhumerus -54.1851 26.6736 27.824
lradius 21.4181
lwrist 0.447799
lhand -18.7355 27.0535
lfingers 7.12502
lthumb 7.5605 56.8983
rfemur -25.0161 -12.3268 13.4945
rtibia 47.0754
rfoot -8.8033 -7.34101
rtoes -8.91317
lfemur -48.8849 0.997298 -14.6806
ltibia 59.6867
lfoot -11.8533 0.865232
ltoes -8.37106
504
root 9.24972 16.7616 -2.2615 -10.7325 38.1477 -14.8739
lowerback 28.2066 3.61807 4.47835
upperback 9.66059 6.36064 2.82645
thorax -4.53807 3.25661 -1.42142
lowerneck -7.12963 -20.0497 -12.0814
upperneck -11.1539 -25.8855 34.1491
head 4.56144 -12.8663 9.62674
rclavicle 8.27938e-014 -1.5207e-014
rhumerus 72.9282 -61.337 -90.6931
rradius 8.32022
rwrist 58.5848
rhand -20.2988 15.7894
rfingers 7.12502
rthumb 6.05131 -14.1042
lclavicle 8.27938e-014 -1.5207e-014
lhumerus -54.1384 27.1146 27.8677
lradius 21.0688
lwrist 0.0997641
lhand -18.5263 26.5317
lfingers 7.12502
lthumb 7.76238 56.3692
rfemur -25.2961 -13.0823 14.1061
rtibia 48.5368
rfoot -9.12708 -5.98764
rtoes -5.37968
lfemur -48.0875 0.321969 -13.6102
ltibia 56.8501
lfoot -10.7765 0.489972
ltoes -9.85787
